<svg viewBox="0 0 90 31" xmlns="http://www.w3.org/2000/svg" xmlns:xlink="http://www.w3.org/1999/xlink" width="90.000000" height="31.000000" fill="none" customFrame="#000000">
	<g id="logo">
		<rect id="Rectangle 19" width="33.000000" height="26.000000" x="6.000000" y="5.000000" rx="8.000000" fill="rgb(251,124,47)" />
		<rect id="Rectangle 20" width="33.000000" height="26.000000" x="0.000000" y="0.000000" rx="8.000000" fill="rgb(251,124,47)" fill-opacity="0.200000003" />
		<path id="Union" d="M23.1335 20.5701L24.419 19.1596L27.1865 23.9982L30.9003 23.9982L26.508 16.7492L30.9003 11L27.0258 11L24.2226 15.0798L23.1335 16.7314L23.1335 11L20 11L20 23.9982L23.1335 23.9982L23.1335 20.5701ZM77.7694 14.3388L77.7694 11.9374L74.7608 11.9374L74.7608 14.3388L73.5289 14.3388L73.5289 16.4278L74.7608 16.4278L74.7608 21.2218C74.7608 22.2157 75.0078 22.9567 75.5018 23.4447C75.9958 23.9328 76.7606 24.1768 77.7962 24.1768C78.3118 24.1768 78.8093 24.1107 79.2885 23.9785C79.3568 23.9596 79.4248 23.9394 79.4924 23.9179L79.4924 21.7664C79.29 21.8021 79.04 21.82 78.7425 21.82C78.3556 21.82 78.0967 21.7485 77.9658 21.6057C77.8348 21.4629 77.7694 21.2099 77.7694 20.8469L77.7694 16.4278L79.3584 16.4278L79.3584 14.3388L77.7694 14.3388ZM67.0845 11.9887L68.5184 11.9887L68.5184 14.2111C69.3917 14.3171 70.1215 14.5888 70.7077 15.0262C71.1198 15.3337 71.4221 15.6927 71.6147 16.1032C71.7837 16.4634 71.8683 16.8632 71.8683 17.3027L68.8508 17.3027C68.8508 16.529 68.4431 16.1422 67.6278 16.1422C67.3123 16.1422 67.0475 16.2314 66.8332 16.41C66.7119 16.5077 66.625 16.6197 66.5723 16.746C66.532 16.8428 66.5118 16.948 66.5118 17.0617C66.5118 17.3295 66.6428 17.5467 66.9046 17.7134C67.1665 17.88 67.5831 18.0169 68.1545 18.124C68.7318 18.2312 69.2377 18.3591 69.6721 18.5079C71.1243 19.0078 71.8504 19.9036 71.8504 21.195C71.8504 22.0759 71.4576 22.793 70.672 23.3465C70.0855 23.7629 69.3676 24.0227 68.5184 24.1258L68.5184 26.3284L67.0845 26.3284L67.0845 24.1536C66.4774 24.1012 65.9234 23.9601 65.4227 23.7304C64.774 23.4328 64.2681 23.0281 63.905 22.5163C63.542 22.0045 63.3605 21.4658 63.3605 20.9004L66.1726 20.9004C66.1845 21.3468 66.3333 21.6742 66.619 21.8825C66.9046 22.0848 67.2707 22.186 67.717 22.186C68.1277 22.186 68.4342 22.1027 68.6366 21.936C68.8448 21.7694 68.949 21.5521 68.949 21.2843C68.949 21.0284 68.8151 20.8231 68.5473 20.6683C68.2794 20.5136 67.7706 20.3529 67.0207 20.1863C66.2708 20.0196 65.6518 19.8024 65.1638 19.5346C64.6758 19.2608 64.3038 18.9305 64.0479 18.5436C63.792 18.1568 63.664 17.7134 63.664 17.2134C63.664 16.3267 64.03 15.5976 64.7621 15.0262C65.3768 14.5415 66.1509 14.2603 67.0845 14.1825L67.0845 11.9887ZM37.712 23.1323C37.7953 23.5132 37.8906 23.8018 37.9977 23.9982L41.0062 23.9982L41.0062 23.8465C40.7444 23.3763 40.6075 22.6978 40.5956 21.811L40.5956 17.5348C40.5777 16.4874 40.2117 15.6631 39.4975 15.062C38.7833 14.4608 37.8102 14.1603 36.5782 14.1603C35.3463 14.1603 34.3315 14.4519 33.534 15.0352C33.0888 15.3632 32.7688 15.7468 32.574 16.1859L32.574 16.1859C32.4225 16.5276 32.3467 16.9028 32.3467 17.3116L35.3552 17.3116C35.3552 16.6094 35.7123 16.2582 36.4265 16.2582C36.7554 16.2582 37.0139 16.3396 37.2019 16.5024C37.4527 16.7195 37.5781 17.0815 37.5781 17.5884L37.5781 18.0973L36.6497 18.0973C35.1737 18.0973 34.0488 18.3651 33.2751 18.9007C32.9834 19.1027 32.7467 19.341 32.565 19.6157L32.565 19.6157L32.565 19.6157C32.2647 20.0696 32.1146 20.6228 32.1146 21.2754C32.1146 21.6768 32.1885 22.0458 32.3363 22.3823L32.3363 22.3823C32.4953 22.7442 32.7398 23.0686 33.0698 23.3555C33.7066 23.903 34.4803 24.1768 35.3909 24.1768C36.0318 24.1768 36.5811 24.032 37.0389 23.7425C37.2911 23.583 37.5154 23.3796 37.712 23.1323ZM50.2193 22.8377C50.8977 21.939 51.237 20.7398 51.237 19.24L51.237 19.0971C51.237 17.5616 50.9067 16.3564 50.246 15.4815C49.5854 14.6007 48.66 14.1603 47.4696 14.1603C46.9695 14.1603 46.5207 14.2613 46.1233 14.4633L46.1233 14.4633L46.1232 14.4634C45.7734 14.6412 45.4634 14.8973 45.1932 15.2316L45.1039 14.3388L42.2918 14.3388L42.2918 27.712L45.3003 27.712L45.3003 23.2037C45.8716 23.8524 46.6007 24.1768 47.4875 24.1768C48.1011 24.1768 48.6468 24.0494 49.1246 23.7946L49.1247 23.7946C49.5412 23.5724 49.906 23.2535 50.2193 22.8377ZM86.7058 23.1323C86.7891 23.5132 86.8843 23.8018 86.9915 23.9982L90 23.9982L90 23.8465C89.7381 23.3763 89.6012 22.6978 89.5893 21.811L89.5893 17.5348C89.5715 16.4874 89.2055 15.6631 88.4913 15.062C87.7771 14.4608 86.804 14.1603 85.572 14.1603C84.34 14.1603 83.3253 14.4519 82.5278 15.0352C81.7362 15.6184 81.3405 16.3772 81.3405 17.3116L84.349 17.3116C84.349 16.9664 84.4353 16.706 84.6079 16.5305C84.7864 16.349 85.0572 16.2582 85.4203 16.2582C86.188 16.2582 86.5719 16.7016 86.5719 17.5884L86.5719 18.0973L85.6434 18.0973C84.1675 18.0973 83.0426 18.3651 82.2689 18.9007C81.9772 19.1027 81.7405 19.341 81.5588 19.6157C81.2585 20.0696 81.1083 20.6229 81.1083 21.2754C81.1083 21.6768 81.1823 22.0458 81.3301 22.3823C81.4891 22.7442 81.7336 23.0686 82.0636 23.3555C82.7004 23.903 83.4741 24.1768 84.3847 24.1768C85.3786 24.1768 86.1523 23.8286 86.7058 23.1323ZM56.7453 24.1768C57.8285 24.1768 58.6885 23.7691 59.3253 22.9537L59.4146 23.9982L62.2356 23.9982L62.2356 14.3388L59.2093 14.3388L59.2093 21.1147C59.117 21.271 59.0047 21.4026 58.8725 21.5095L58.8719 21.5099C58.5864 21.7404 58.2078 21.8557 57.7362 21.8557C56.9328 21.8557 56.531 21.442 56.531 20.6148L56.531 14.3388L53.5225 14.3388L53.5225 20.5969C53.5225 21.7515 53.7933 22.6383 54.3349 23.2573C54.4158 23.3478 54.5023 23.4317 54.5944 23.5089L54.5982 23.5121C55.1289 23.9552 55.8446 24.1768 56.7453 24.1768ZM47.3935 16.6471C47.9502 16.9718 48.2285 17.7736 48.2285 19.0525L48.2285 19.3739C48.1987 21.0284 47.7047 21.8557 46.7465 21.8557C46.2948 21.8557 45.9342 21.7449 45.6647 21.5233C45.5152 21.4004 45.3937 21.2433 45.3003 21.0522L45.3003 17.2492C45.5383 16.7373 46.0145 16.4814 46.7287 16.4814C46.9825 16.4814 47.2041 16.5366 47.3935 16.6471ZM37.0425 21.7932C36.7985 21.9539 36.489 22.0342 36.114 22.0342C35.8284 22.0342 35.5933 21.9509 35.4088 21.7843C35.2243 21.6117 35.132 21.3885 35.132 21.1147C35.132 20.6951 35.2363 20.3691 35.4449 20.1367C35.7038 19.8483 36.1232 19.7042 36.7032 19.7042L37.5781 19.7042L37.5781 21.2486C37.471 21.451 37.2924 21.6325 37.0425 21.7932ZM86.0362 21.7932C85.7922 21.9539 85.4827 22.0342 85.1078 22.0342C84.8221 22.0342 84.587 21.9509 84.4025 21.7843C84.218 21.6117 84.1258 21.3885 84.1258 21.1147C84.1258 20.1744 84.6495 19.7042 85.697 19.7042L86.5719 19.7042L86.5719 21.2486C86.4648 21.451 86.2862 21.6325 86.0362 21.7932Z" fill="rgb(0,0,0)" fill-rule="evenodd" />
	</g>
</svg>
